<svg enable-background="new 0.001 -0.001 31.996 29.997" height="64" viewBox="0.001 -0.001 31.996 29.997"
     width="64" xmlns="http://www.w3.org/2000/svg">
  <path
    d="M23.841 17.972h8.032c.074-.576.147-1.162.116-1.758-.321-6.163-4.144-11.568-9.642-13.413l.423.084s10.027-4.359 6.644 5.447l.412.677s3.089-7.542-1.688-8.789c-3.909-1.02-9.686 1.814-9.686 1.814l.213.042c-.359-.025-.721-.042-1.088-.042-7.146 0-13.078 4.845-14.215 11.453.81-.907 3.712-4.255 6.979-6.352 0 0-5.566 4.76-7.177 8.671 0 0-2.064 3.502-2.742 6.122-.41 1.588-1.463 7.283 2.742 7.938 4.376.68 7.829-1.551 7.829-1.551l-.084-.047c1.994 1.018 4.261 1.598 6.667 1.598 6.375 0 11.779-4.26 13.68-9.855h-8.242c-1.123 2.213-3.112 3.449-5.467 3.449-3.123 0-5.413-1.84-6.008-5.488h12.302zm-13.819 9.807s-2.421 1.18-4.463 1.236c-6.243-.057-1.565-8.506-1.565-8.506l-.003-.009c1.107 3.051 3.264 5.619 6.048 7.291l-.017-.012zm7.556-19.226c3.617 0 5.309 2.446 5.718 5.45h-11.697c.635-2.98 2.702-5.45 5.979-5.45z"
    fill="#26A6D1"/>
</svg>
